<?xml version="1.0" encoding="UTF-8"?>
<svg id="Capa_2" data-name="Capa 2" xmlns="http://www.w3.org/2000/svg" viewBox="0 0 303.78 60.04">
  <defs>
    <style>
      .cls-1 {
        fill: #ffde00;
      }
    </style>
  </defs>
  <g id="Portada">
    <g>
      <path class="cls-1" d="M190.28,20.54v38.46h-9.01V20.54h-10.39v-7.76h29.79v7.76h-10.39Z"/>
      <path class="cls-1" d="M156.19,12.78v29.03s0,.05,0,.08v4.85s-5.6,5.6-5.6,5.6h-7.92s-5.6-5.6-5.6-5.6v-4.72c0-.07,0-.14,0-.21V12.78h-9.01v28.27c0,4.37.69,8.8,3.46,12.33,3.33,4.37,9.15,6.65,15.11,6.65s11.78-2.29,15.11-6.65c2.77-3.53,3.46-7.97,3.46-12.33V12.78h-9.01Z"/>
      <g>
        <path class="cls-1" d="M221.91,33.34c-1.41-.03-2.58,1.08-2.61,2.49-.03,1.41,1.08,2.58,2.49,2.61,1.41.03,2.57-1.08,2.61-2.49.03-1.41-1.08-2.58-2.49-2.61Z"/>
        <path class="cls-1" d="M225.48,12.78h-7.07l-19.89,46.22h9.77l4.09-9.7h18.64l4.09,9.7h9.7l-19.33-46.22ZM228.25,38.72l-3.88,3.7-5.36-.13-3.7-3.88.13-5.36,3.88-3.7,5.36.13,3.7,3.88-.13,5.36Z"/>
      </g>
      <polygon class="cls-1" points="25.64 20.54 25.64 12.78 7.45 12.78 .1 20.13 0 20.13 0 48.97 .01 48.97 10.04 59 25.64 59 25.64 51.24 9.01 51.24 9.01 38.63 24.95 38.63 24.95 30.87 9.01 30.87 9.01 20.54 25.64 20.54"/>
      <polygon class="cls-1" points="303.78 21.06 303.78 13.3 285.6 13.3 278.25 20.65 278.15 20.65 278.15 49.49 278.16 49.49 288.19 59.52 303.78 59.52 303.78 51.76 287.15 51.76 287.15 39.15 303.09 39.15 303.09 31.39 287.15 31.39 287.15 21.06 303.78 21.06"/>
      <path class="cls-1" d="M262.42,21.06v38.46h-9.01V21.06h-10.39v-7.76h29.79v7.76h-10.39Z"/>
      <path class="cls-1" d="M76.09,48.73h-4.25s-3.01,3.01-3.01,3.01v4.25s3.01,3.01,3.01,3.01h4.25s3.01-3.01,3.01-3.01v-4.25s-3.01-3.01-3.01-3.01ZM75.4,55.29c-.79.79-2.07.79-2.86,0-.79-.79-.79-2.07,0-2.86.79-.79,2.07-.79,2.86,0,.79.79.79,2.07,0,2.86Z"/>
      <path class="cls-1" d="M76.09,48.74h-4.25l-3.1-5.12-28.13-30.83h-6.24v46.22h9.01v-30.9l28.13,30.9h4.58l3.01-3.01v-4.25l-3.01-3.01ZM75.4,55.29c-.79.79-2.07.79-2.86,0-.79-.79-.79-2.07,0-2.86.79-.79,2.07-.79,2.86,0,.79.79.79,2.07,0,2.86Z"/>
      <path class="cls-1" d="M74.87,45.18c-.5.5-1.31.5-1.81,0-.5-.5-.5-1.31,0-1.81.5-.5,1.31-.5,1.81,0,.5.5.5,1.31,0,1.81Z"/>
      <path class="cls-1" d="M74.87,38.08c-.5.5-1.31.5-1.81,0-.5-.5-.5-1.31,0-1.81.5-.5,1.31-.5,1.81,0,.5.5.5,1.31,0,1.81Z"/>
      <path class="cls-1" d="M74.87,31.84c-.5.5-1.31.5-1.81,0-.5-.5-.5-1.31,0-1.81.5-.5,1.31-.5,1.81,0,.5.5.5,1.31,0,1.81Z"/>
      <path class="cls-1" d="M76.67,12.78h-5.41s-3.83,3.83-3.83,3.83v5.41s3.83,3.83,3.83,3.83h5.41s3.83-3.83,3.83-3.83v-5.41s-3.83-3.83-3.83-3.83ZM75.79,21.14c-1.01,1.01-2.64,1.01-3.64,0-1.01-1.01-1.01-2.63,0-3.64,1-1.01,2.63-1.01,3.64,0,1.01,1,1,2.63,0,3.64Z"/>
      <polygon class="cls-1" points="146.62 9.84 156.32 0 162.56 4.85 150.5 13.3 146.62 9.84"/>
      <path class="cls-1" d="M100.81,13.23l6.37.15,7.71,7.92c0-.24-.15,11.06-.15,11.06l-7.92,7.71,14.29,19.38h-11.23l-12.33-18.57h-1.11v18.57h-9.01V13.23h13.37ZM104.76,20.21h-5.41l-3.83,3.83v5.41l3.83,3.83h5.41s3.83-3.83,3.83-3.83v-5.41l-3.83-3.83ZM103.88,28.57c-1.01,1.01-2.64,1.01-3.64,0-1.01-1.01-1.01-2.63,0-3.64,1-1.01,2.63-1.01,3.64,0,1.01,1,1,2.63,0,3.64Z"/>
    </g>
  </g>
</svg>